<svg width="18" height="20" viewBox="0 0 18 20" fill="none" xmlns="http://www.w3.org/2000/svg">
<path d="M4.875 6.5625V5.1875C4.875 4.09348 5.3096 3.04427 6.08318 2.27068C6.85677 1.4971 7.90598 1.0625 9 1.0625V1.0625C10.094 1.0625 11.1432 1.4971 11.9168 2.27068C12.6904 3.04427 13.125 4.09348 13.125 5.1875V6.5625M1.4375 6.5625C1.25516 6.5625 1.0803 6.63493 0.951364 6.76386C0.822433 6.8928 0.75 7.06766 0.75 7.25V16.5312C0.75 17.8306 1.85688 18.9375 3.15625 18.9375H14.8438C16.1431 18.9375 17.25 17.8843 17.25 16.585V7.25C17.25 7.06766 17.1776 6.8928 17.0486 6.76386C16.9197 6.63493 16.7448 6.5625 16.5625 6.5625H1.4375Z" stroke="#3A3A3A" stroke-linecap="round" stroke-linejoin="round"/>
</svg>
