<svg width="181" height="29" viewBox="0 0 181 29" fill="none" xmlns="http://www.w3.org/2000/svg">
<path d="M3.46 22V8.02L17.98 23.23V1.99H14.92V15.85L0.4 0.64V22H3.46ZM31.4828 10.84C30.2828 9.28 28.6628 9.04 27.7328 9.04C24.4028 9.04 21.5828 11.56 21.5828 15.67C21.5828 19.15 23.8028 22.39 27.7028 22.39C28.6028 22.39 30.1928 22.18 31.4828 20.68V22H34.4228V9.37H31.4828V10.84ZM28.0928 11.68C29.9528 11.68 31.6628 13 31.6628 15.76C31.6628 18.4 29.9528 19.75 28.0928 19.75C25.9628 19.75 24.5828 17.92 24.5828 15.73C24.5828 13.48 25.9628 11.68 28.0928 11.68ZM41.091 20.53C42.411 22.15 44.181 22.39 44.871 22.39C47.871 22.39 50.991 19.87 50.991 15.61C50.991 11.59 48.171 9.04 44.841 9.04C43.581 9.04 42.171 9.46 41.091 10.75V9.37H38.151V28.87H41.091V20.53ZM44.481 11.68C46.611 11.68 47.991 13.48 47.991 15.73C47.991 17.92 46.611 19.75 44.481 19.75C42.621 19.75 40.911 18.4 40.911 15.76C40.911 13 42.621 11.68 44.481 11.68ZM60.1492 9.04C56.3392 9.04 53.3992 11.8 53.3992 15.7C53.3992 19.57 56.3392 22.39 60.1492 22.39C63.9592 22.39 66.8992 19.57 66.8992 15.7C66.8992 11.8 63.9592 9.04 60.1492 9.04ZM60.1492 19.75C57.8392 19.75 56.3992 18.16 56.3992 15.73C56.3992 12.85 58.2892 11.68 60.1492 11.68C62.0092 11.68 63.8992 12.85 63.8992 15.73C63.8992 18.16 62.4592 19.75 60.1492 19.75ZM69.9674 0.129999V22H72.9074V0.129999H69.9674ZM85.4678 17.74C85.1978 18.22 84.8078 18.73 84.2978 19.12C83.6978 19.57 83.0978 19.75 82.2878 19.75C81.5678 19.75 80.7278 19.63 80.0378 18.94C79.4078 18.31 79.0178 17.29 78.9578 16.39H88.0178V16.03C88.0178 14.71 87.8678 12.37 86.2478 10.69C85.4978 9.91 84.2078 9.04 82.1978 9.04C80.3978 9.04 79.0178 9.7 77.9678 10.75C76.6478 12.1 75.9578 13.99 75.9578 15.94C75.9578 17.83 76.6178 19.57 77.8178 20.77C79.0178 21.97 80.3978 22.39 82.0778 22.39C83.4278 22.39 84.7778 22.09 85.7978 21.43C86.6078 20.92 87.3878 20.08 87.9278 19.12L85.4678 17.74ZM79.1678 13.99C79.3178 13.36 79.6478 12.76 80.0678 12.37C80.4578 11.98 81.1178 11.56 82.1378 11.56C83.0978 11.56 83.7278 11.92 84.1178 12.28C84.5678 12.7 84.8978 13.3 85.0178 13.99H79.1678ZM97.1805 9.04C93.3705 9.04 90.4305 11.8 90.4305 15.7C90.4305 19.57 93.3705 22.39 97.1805 22.39C100.99 22.39 103.93 19.57 103.93 15.7C103.93 11.8 100.99 9.04 97.1805 9.04ZM97.1805 19.75C94.8705 19.75 93.4305 18.16 93.4305 15.73C93.4305 12.85 95.3205 11.68 97.1805 11.68C99.0405 11.68 100.93 12.85 100.93 15.73C100.93 18.16 99.4905 19.75 97.1805 19.75ZM106.969 22H109.909V15.94C109.909 11.86 111.259 11.68 112.579 11.68C113.689 11.68 114.889 11.77 114.889 14.98V22H117.829V14.26C117.829 12.31 117.529 11.44 117.049 10.75C116.659 10.21 115.669 9.04 113.329 9.04C112.609 9.04 111.169 9.13 109.909 10.54V9.37H106.969V22ZM136.919 3.07C135.179 1.96 133.409 1.63 131.579 1.63C128.819 1.63 126.419 2.29 124.349 4.24C122.669 5.83 121.139 8.38 121.139 12.07C121.139 14.89 122.009 17.44 124.349 19.63C125.519 20.74 127.799 22.39 131.429 22.39C132.809 22.39 134.909 22.09 136.919 20.89V17.26C135.779 18.34 133.919 19.57 131.519 19.57C127.259 19.57 124.199 16.3 124.199 12.07C124.199 7.66 127.139 4.45 131.489 4.45C132.629 4.45 134.699 4.66 136.919 6.67V3.07ZM149.403 10.84C148.203 9.28 146.583 9.04 145.653 9.04C142.323 9.04 139.503 11.56 139.503 15.67C139.503 19.15 141.723 22.39 145.623 22.39C146.523 22.39 148.113 22.18 149.403 20.68V22H152.343V9.37H149.403V10.84ZM146.013 11.68C147.873 11.68 149.583 13 149.583 15.76C149.583 18.4 147.873 19.75 146.013 19.75C143.883 19.75 142.503 17.92 142.503 15.73C142.503 13.48 143.883 11.68 146.013 11.68ZM156.071 0.129999V22H159.011V17.14L159.551 16.6L163.691 22H167.411L161.591 14.62L167.021 9.37H163.121L159.011 13.6V0.129999H156.071ZM177.87 17.74C177.6 18.22 177.21 18.73 176.7 19.12C176.1 19.57 175.5 19.75 174.69 19.75C173.97 19.75 173.13 19.63 172.44 18.94C171.81 18.31 171.42 17.29 171.36 16.39H180.42V16.03C180.42 14.71 180.27 12.37 178.65 10.69C177.9 9.91 176.61 9.04 174.6 9.04C172.8 9.04 171.42 9.7 170.37 10.75C169.05 12.1 168.36 13.99 168.36 15.94C168.36 17.83 169.02 19.57 170.22 20.77C171.42 21.97 172.8 22.39 174.48 22.39C175.83 22.39 177.18 22.09 178.2 21.43C179.01 20.92 179.79 20.08 180.33 19.12L177.87 17.74ZM171.57 13.99C171.72 13.36 172.05 12.76 172.47 12.37C172.86 11.98 173.52 11.56 174.54 11.56C175.5 11.56 176.13 11.92 176.52 12.28C176.97 12.7 177.3 13.3 177.42 13.99H171.57Z" fill="#3A3A3A"/>
</svg>
