<svg width="20" height="20" viewBox="0 0 20 20" fill="none" xmlns="http://www.w3.org/2000/svg">
<path d="M19.1668 14.5098V17.2598C19.1678 17.5151 19.1156 17.7678 19.0133 18.0017C18.911 18.2356 18.761 18.4456 18.5729 18.6181C18.3848 18.7907 18.1627 18.9221 17.9208 19.0039C17.679 19.0857 17.4227 19.1161 17.1685 19.0931C14.3477 18.7866 11.6382 17.8227 9.25764 16.2789C7.04282 14.8715 5.16503 12.9938 3.75764 10.7789C2.20846 8.38753 1.24436 5.66484 0.943475 2.83143C0.920568 2.57794 0.950694 2.32246 1.03193 2.08125C1.11317 1.84004 1.24375 1.6184 1.41534 1.43042C1.58694 1.24244 1.7958 1.09225 2.02862 0.989408C2.26144 0.88657 2.51312 0.833336 2.76764 0.833097H5.51764C5.96251 0.828718 6.39378 0.986252 6.73109 1.27633C7.0684 1.56642 7.28871 1.96926 7.35098 2.40976C7.46705 3.28982 7.6823 4.15393 7.99264 4.9856C8.11597 5.31369 8.14267 5.67027 8.06956 6.01307C7.99645 6.35587 7.8266 6.67053 7.58014 6.91976L6.41598 8.08393C7.7209 10.3788 9.62106 12.279 11.916 13.5839L13.0801 12.4198C13.3294 12.1733 13.644 12.0035 13.9868 11.9303C14.3296 11.8572 14.6862 11.8839 15.0143 12.0073C15.846 12.3176 16.7101 12.5329 17.5901 12.6489C18.0354 12.7117 18.4421 12.936 18.7328 13.2791C19.0235 13.6222 19.178 14.0602 19.1668 14.5098Z" stroke="#3A3A3A" stroke-linecap="round" stroke-linejoin="round"/>
</svg>
